PathFileType	4	(X/Y/Z)	Walk3.trc
DataRate	CameraRate	NumFrames	NumMarkers	Units	OrigDataRate	OrigDataStartFrame	OrigNumFrames
200.000000	200.000000	4	61	mm	200.000000	440	737
Frame#	Times		LTH3		RCAR		LBHD		RTH2		LWRU		LUA1		LElbow		RTH3		LFA1		LCAR		C7		RPSI		LElbowM		RTB3		RBHD		RASI		RTB1		RTB2		RToe		LTH4		RFA1		RMT5		RWRU		LWRR		LTH2		RLFC		RElbow		RTB4		RMT1		RMMAL		T10		RBack		RLMAL		STRN		LASI		LPSI		CLAV		RCAL		RUA1		RElbowM		LLFC		LFHD		LACR1		LTB3		RFHD		LTB4		LCAL		RACR1		LTB2		LMMAL		RTH1		LTB1		LMT5		LLMAL		RTH4		LMFC		RWRR		RMFC		LTH1		LToe		LMT1
			X1	Y1	Z1	X2	Y2	Z2	X3	Y3	Z3	X4	Y4	Z4	X5	Y5	Z5	X6	Y6	Z6	X7	Y7	Z7	X8	Y8	Z8	X9	Y9	Z9	X10	Y10	Z10	X11	Y11	Z11	X12	Y12	Z12	X13	Y13	Z13	X14	Y14	Z14	X15	Y15	Z15	X16	Y16	Z16	X17	Y17	Z17	X18	Y18	Z18	X19	Y19	Z19	X20	Y20	Z20	X21	Y21	Z21	X22	Y22	Z22	X23	Y23	Z23	X24	Y24	Z24	X25	Y25	Z25	X26	Y26	Z26	X27	Y27	Z27	X28	Y28	Z28	X29	Y29	Z29	X30	Y30	Z30	X31	Y31	Z31	X32	Y32	Z32	X33	Y33	Z33	X34	Y34	Z34	X35	Y35	Z35	X36	Y36	Z36	X37	Y37	Z37	X38	Y38	Z38	X39	Y39	Z39	X40	Y40	Z40	X41	Y41	Z41	X42	Y42	Z42	X43	Y43	Z43	X44	Y44	Z44	X45	Y45	Z45	X46	Y46	Z46	X47	Y47	Z47	X48	Y48	Z48	X49	Y49	Z49	X50	Y50	Z50	X51	Y51	Z51	X52	Y52	Z52	X53	Y53	Z53	X54	Y54	Z54	X55	Y55	Z55	X56	Y56	Z56	X57	Y57	Z57	X58	Y58	Z58	X59	Y59	Z59	X60	Y60	Z60	X61	Y61	Z61

440	2.2	-340.54	615.51	-180.9	-217.67	879.66	244.59	-415.31	1636.4	-146.6	-335.24	698.24	158.38	-434.14	839.09	-302.65	-432.93	1275.2	-308.51	-470.11	1121.8	-322.82	-407.75	602.82	174.12	-458.01	970.79	-322.33	-365.97	794.06	-304.52	-451.01	1512.3	-60.513	-565.12	1022.6	15.158	-506.25	1119.1	-254.19	-597.79	245.98	78.555	-414.14	1651.9	-5.5029	-355.33	1048.2	122.19	-456.71	364.59	102.81	-556.44	320.48	149.98	-610.54	53.496	105.54	-358.44	704.85	-197.5	-351.82	1007.3	259.64	-696.59	89.504	145.41	-285.99	888.35	247.01	-367.6	849.94	-254.49	-290.67	722.16	-177.45	-430.14	493.25	168.9	-413.72	1150.5	249.09	-526.27	303.62	89.304	-646.19	65.903	78.656	-670.16	182.35	37.626	-564.1	1292.7	-43.692	-529.15	1437.3	81.108	-723.02	192.61	107.75	-282.76	1245.8	-44.583	-346.89	1031.1	-162.12	-564.75	1019.9	-62.251	-322.92	1419.7	-54.484	-778.14	201.13	48.323	-392.26	1306.2	205.91	-447.35	1131.1	175.94	-328.83	514.74	-169.73	-235.43	1669.3	-106.79	-382.06	1450.7	-223.14	-305.13	196.05	-88.077	-235.94	1676.4	-30.77	-290.82	291.5	-89.494	-416.69	26.16	-81.901	-374.54	1471.7	100.72	-316.3	293.64	-160.36	-331.41	90.42	-45.924	-409.42	793.15	178.74	-277.87	380.46	-93.227	-260.34	20.232	-160.38	-359.52	68.541	-126.4	-405.69	697.08	180.49	-317.24	523.5	-40.217	-238.69	914.86	190.7	-388.9	496.15	42.5	-372.97	796.45	-210.73	-160.08	30.115	-91.718	-212.78	38.79	-76.094
441	2.205	-337.9	615.83	-181.19	-217.42	878.58	245.53	-410.68	1637.2	-147.19	-328.15	700.12	158.85	-424.58	839.9	-303.43	-426.77	1276	-309.23	-462.87	1122.4	-323.92	-399.9	604.05	174.54	-449.52	971.47	-323.44	-355.85	795.69	-305.42	-446.26	1513.2	-61.068	-560.39	1023.6	14.597	-499.32	1119.3	-255.49	-587.87	247.09	79.224	-409.48	1652.8	-6.107	-350.76	1048.4	122.26	-447.13	365.93	103.62	-546.77	321.78	150.63	-600.22	54.41	105.84	-355.23	705.28	-197.84	-350.32	1007.7	259.55	-686.51	90.293	145.77	-285.63	888.15	247.74	-358.11	851.52	-255.36	-287.4	722.2	-177.43	-421.05	494.57	169.47	-410.89	1151.3	248.37	-516.45	304.84	90.018	-635.89	67.028	78.946	-660.31	183.48	38.062	-559.35	1293.5	-44.458	-524.7	1438.1	80.284	-713.07	193.52	108.26	-278.05	1246.7	-44.744	-342.16	1032	-162.16	-560.07	1020.8	-62.799	-318.23	1420.6	-54.827	-768.13	201.96	48.788	-388.76	1307	205.57	-444.28	1132.2	175.16	-327.18	514.79	-169.92	-230.78	1670.1	-107.47	-377.04	1451.6	-223.52	-304.81	195.99	-88.187	-231.28	1677.4	-31.448	-290.2	291.39	-89.613	-416.74	26.15	-81.927	-370.12	1472.6	100.42	-315.54	293.55	-160.53	-331.42	90.489	-46.014	-403.4	794.38	178.85	-276.9	380.33	-93.422	-260.34	20.18	-160.4	-359.6	68.588	-126.5	-398.77	698.36	180.81	-315.73	523.41	-40.301	-237.88	913.83	191.43	-379.41	497.47	43.2	-369.06	796.97	-211.05	-160.13	30.096	-91.7	-212.82	38.794	-76.128
442	2.21	-335.31	616.14	-181.45	-217.22	877.54	246.5	-406.05	1637.9	-147.73	-321.07	701.99	159.27	-414.98	840.74	-304.21	-420.6	1276.8	-309.91	-455.6	1123	-325.01	-392.08	605.31	174.96	-441	972.18	-324.53	-345.71	797.36	-306.32	-441.52	1514	-61.598	-555.67	1024.5	14.079	-492.36	1119.6	-256.76	-577.81	248.06	79.867	-404.82	1653.7	-6.6652	-346.22	1048.6	122.31	-437.51	367.27	104.4	-536.99	322.95	151.27	-589.54	55.147	106.06	-352.04	705.68	-198.16	-348.85	1008.2	259.52	-676.1	90.823	146.09	-285.29	887.98	248.53	-348.59	853.12	-256.21	-284.17	722.21	-177.38	-412	495.9	170.03	-408.09	1152.1	247.71	-506.53	305.99	90.7	-625.25	67.968	79.165	-650.22	184.4	38.51	-554.61	1294.3	-45.211	-520.27	1439	79.48	-702.92	194.15	108.78	-273.37	1247.5	-44.894	-337.48	1032.8	-162.23	-555.41	1021.7	-63.31	-313.56	1421.4	-55.153	-757.94	202.48	49.279	-385.28	1307.8	205.24	-441.24	1133.2	174.44	-325.58	514.83	-170.09	-226.14	1671	-108.11	-372.05	1452.4	-223.88	-304.5	195.93	-88.282	-226.63	1678.3	-32.071	-289.59	291.28	-89.71	-416.79	26.14	-81.948	-365.7	1473.5	100.13	-314.8	293.46	-160.69	-331.43	90.555	-46.096	-397.37	795.61	178.96	-275.96	380.21	-93.594	-260.35	20.132	-160.42	-359.67	68.635	-126.59	-391.86	699.65	181.13	-314.19	523.31	-40.367	-237.11	912.83	192.22	-370	498.81	43.886	-365.18	797.46	-211.35	-160.17	30.073	-91.671	-212.85	38.796	-76.158
443	2.215	-332.77	616.43	-181.68	-217.05	876.55	247.52	-401.42	1638.7	-148.23	-314	703.87	159.64	-405.35	841.61	-304.98	-414.42	1277.6	-310.58	-448.31	1123.6	-326.08	-384.26	606.57	175.36	-432.44	972.9	-325.6	-335.55	799.07	-307.22	-436.79	1514.8	-62.103	-550.99	1025.4	13.607	-485.37	1119.8	-258.01	-567.6	248.88	80.484	-400.17	1654.6	-7.1792	-341.71	1048.9	122.35	-427.84	368.58	105.15	-527.11	323.99	151.91	-578.53	55.709	106.21	-348.89	706.07	-198.46	-347.42	1008.6	259.53	-665.37	91.102	146.37	-284.97	887.85	249.38	-339.04	854.75	-257.06	-280.99	722.2	-177.34	-402.99	497.22	170.58	-405.33	1152.9	247.11	-496.53	307.07	91.348	-614.3	68.723	79.328	-639.89	185.11	38.968	-549.9	1295.1	-45.95	-515.84	1439.8	78.694	-692.55	194.52	109.3	-268.71	1248.3	-45.038	-332.86	1033.6	-162.32	-550.78	1022.6	-63.784	-308.89	1422.2	-55.465	-747.57	202.7	49.793	-381.81	1308.5	204.93	-438.24	1134.2	173.78	-324.01	514.88	-170.24	-221.51	1671.8	-108.69	-367.08	1453.2	-224.22	-304.2	195.88	-88.363	-221.99	1679.3	-32.642	-289	291.17	-89.788	-416.83	26.13	-81.965	-361.28	1474.3	99.864	-314.08	293.38	-160.82	-331.43	90.616	-46.167	-391.34	796.83	179.05	-275.04	380.1	-93.743	-260.35	20.088	-160.43	-359.73	68.68	-126.67	-384.95	700.95	181.45	-312.64	523.2	-40.415	-236.39	911.86	193.05	-360.68	500.16	44.555	-361.33	797.93	-211.63	-160.21	30.046	-91.633	-212.88	38.799	-76.183
